# xmcd
# 
# Track frame offsets:
#     150
#     22122
#     40200
#     61552
#     76087
#     96090
#     110715
#     128557
#     145590
#     172710
#     191780
#     212765
# 
# Disc length: 3159
# 
# Revision: 7
# Processed by: cddbd v1.5.2PL0 Copyright (c) Steve Scherf et al.
# Submitted via: fre:ac v1.0.17
# 
DISCID=960c550c
DTITLE=Cocco - ザンサイアン
DYEAR=2006
DGENRE=JPop
TTITLE0=音速パンチ
TTITLE1=暗黙情事
TTITLE2=夏色
TTITLE3=Beauty C
TTITLE4=四月馬鹿
TTITLE5=Swinging night
TTITLE6=野火
TTITLE7=唄い人
TTITLE8=愛うらら
TTITLE9=インディゴブルー
TTITLE10=陽の照りながら雨の降る
TTITLE11=Happy Ending
EXTD=YEAR: 2006
EXTT0=
EXTT1=
EXTT2=
EXTT3=
EXTT4=
EXTT5=
EXTT6=
EXTT7=
EXTT8=
EXTT9=
EXTT10=
EXTT11=
PLAYORDER=
